<?xml version="1.0" encoding="utf-8"?>
<!-- Generator: Adobe Illustrator 15.0.0, SVG Export Plug-In  -->
<!DOCTYPE svg PUBLIC "-//W3C//DTD SVG 1.1//EN" "http://www.w3.org/Graphics/SVG/1.1/DTD/svg11.dtd" [
	<!ENTITY ns_flows "http://ns.adobe.com/Flows/1.0/">
]>
<svg version="1.1"
	 xmlns="http://www.w3.org/2000/svg" xmlns:xlink="http://www.w3.org/1999/xlink" xmlns:a="http://ns.adobe.com/AdobeSVGViewerExtensions/3.0/"
	 x="0px" y="0px" width="12px" height="20px" viewBox="-0.003 -4.003 12 20" enable-background="new -0.003 -4.003 12 20"
	 xml:space="preserve">
<defs>
</defs>
<g>
	<g>
		<path fill-rule="evenodd" clip-rule="evenodd" fill="#787878" d="M11.921,11.13L9.049,8.258C9.021,8.229,8.98,8.232,8.947,8.216
			c0.706-0.869,1.147-1.961,1.147-3.168C10.094,2.259,7.834,0,5.047,0C2.26,0,0,2.259,0,5.047c0,2.788,2.26,5.046,5.047,5.046
			c1.207,0,2.299-0.44,3.168-1.147C8.232,8.98,8.229,9.021,8.257,9.049l2.873,2.872c0.146,0.146,0.381,0.146,0.527,0l0.264-0.263
			C12.067,11.512,12.067,11.275,11.921,11.13z M5.047,9.313c-2.357,0-4.267-1.91-4.267-4.267s1.91-4.266,4.267-4.266
			c2.356,0,4.266,1.91,4.266,4.266S7.403,9.313,5.047,9.313z"/>
	</g>
</g>
</svg>
